# xmcd CD database file
#
# Track frame offsets:
#	150
#	28906
#	77096
#	100333
#	136950
#	166474
#	216539
#	246838
#
# Disc length: 4442 seconds
#
# Revision: 2
# Processed by: cddbd v1.4PL0 Copyright (c) Steve Scherf et al.
# Submitted via: CDex 1.51
#
DISCID=71115808
DTITLE=Marcus Miller - The Ozell Tapes - The Official Bootleg Tour 2002 [CD 2)
DYEAR=2002
DGENRE=Jazz
TTITLE0=3 Deuces
TTITLE1=Your Amazing Grace
TTITLE2=Nikki's Groove
TTITLE3=When Your Life Was Low
TTITLE4=Burning Down The House
TTITLE5=People Make The World Go 'Round
TTITLE6=Killing me Softly
TTITLE7=Miles/Marcus Medley (Hannibal, Amandla,Tutu)
EXTD=YEAR: 2002
EXTT0=
EXTT1=
EXTT2=
EXTT3=
EXTT4=
EXTT5=
EXTT6=
EXTT7=
PLAYORDER=
